<svg width="319" height="331" viewBox="0 0 319 331" fill="none" xmlns="http://www.w3.org/2000/svg">
<g clip-path="url(#clip0_1_4)">
<path d="M73.14 294.03C69.71 294.05 66.37 295.15 63.61 297.18L21.59 328.07C12.79 334.65 0.220014 328.42 0.220014 317.47C0.220014 243.81 0.0600142 42.8 0.0600142 42.8L1.4208e-05 11.89C-0.00998579 5.41 5.26001 0.15 11.78 0.15H53.3L182.78 0C307.08 8.31 362.52 157.58 278.45 249.17C251.99 278 215.87 294.01 132.26 294.01C123.67 294.01 73.14 294.03 73.14 294.03ZM161.61 233.23C166.49 233.14 171.34 232.96 176.13 232.67C240.53 228.82 277.97 159 246.55 103.1C223.67 62.39 182.34 59.82 140.91 59.58H79.42C73.23 59.58 68.2 64.6 68.2 70.8V221.4C68.2 227.56 73.17 232.57 79.34 232.62L161.6 233.23H161.61Z" fill="url(#paint0_linear_1_4)"/>
</g>
<defs>
<linearGradient id="paint0_linear_1_4" x1="1.4208e-05" y1="165.38" x2="318.64" y2="165.38" gradientUnits="userSpaceOnUse">
<stop stop-color="#3B82F6"/>
<stop offset="1" stop-color="#86EFAC"/>
</linearGradient>
<clipPath id="clip0_1_4">
<rect width="318.64" height="330.76" fill="white"/>
</clipPath>
</defs>
</svg>
